PathFileType	4	(X/Y/Z)	32_2_79_p0_0-170_filt_butterworth.trc
DataRate	CameraRate	NumFrames	NumMarkers	Units	OrigDataRate	OrigDataStartFrame	OrigNumFrames
59.0	59.0	4	27	m	59.0	0	170
Frame#	Time	RHip			RKnee			RAnkle			RBigToe			RSmallToe			RHeel			LHip			LKnee			LAnkle			LBigToe			LSmallToe			LHeel			Neck			Head			Nose			RShoulder			RElbow			RWrist			RThumb			RIndex			RPinky			LShoulder			LElbow			LWrist			LThumb			LIndex			LPinky			
		X1	Y1	Z1	X2	Y2	Z2	X3	Y3	Z3	X4	Y4	Z4	X5	Y5	Z5	X6	Y6	Z6	X7	Y7	Z7	X8	Y8	Z8	X9	Y9	Z9	X10	Y10	Z10	X11	Y11	Z11	X12	Y12	Z12	X13	Y13	Z13	X14	Y14	Z14	X15	Y15	Z15	X16	Y16	Z16	X17	Y17	Z17	X18	Y18	Z18	X19	Y19	Z19	X20	Y20	Z20	X21	Y21	Z21	X22	Y22	Z22	X23	Y23	Z23	X24	Y24	Z24	X25	Y25	Z25	X26	Y26	Z26	X27	Y27	Z27	
0	0.0	0.32765650917130223	0.4721234001749913	1.0796074072558326	0.31502243898515814	0.4744583061032234	1.4883279922928063	0.3092110559903019	0.5093679660875353	1.909338380508904	0.31059573978148597	0.35110161181579397	1.9299118302739058	0.3639480727475448	0.35601696191646626	1.9259469622112535	0.2944184491473806	0.5850733389174899	2.003987996612575	0.13439805856795978	0.47084188976578584	1.0818949677791272	0.13403344941685452	0.4994423294927833	1.4953151661090773	0.15106075129833182	0.5254557859811355	1.9405037742792524	0.16561385302907736	0.36110073954348343	1.9278730028084772	0.10103316540694174	0.4063553231977056	1.9440699513467916	0.16376122141282246	0.550342083090232	1.988956991977642	0.24215711217479077	0.45560336818108593	0.49746577724381025	0.245469001697406	0.4396748286625591	0.25914691106057575	0.23176066495187542	0.36005745013437973	0.37294542752318527	0.3874346576056492	0.44650528768116693	0.5722953870433722	0.3870494167262959	0.406156260571229	0.8017394434264256	0.27283986670335486	0.32468363623202123	0.9997640199548343	0.18609497069978187	0.33334165937150334	1.1054038076517536	0.1925574253974465	0.36193704544813354	1.1291825291874358	0.22477897302983574	0.3454254168529275	1.1005333940912743	0.07764247700952509	0.4513772164159989	0.5609817042318369	0.08239655628128535	0.4042913327388509	0.802064208408832	0.22642802590611633	0.2965302932122073	0.9662078659141671	0.22421043108637637	0.3025461494403095	1.081025667248445	0.2250791129108457	0.30349178625672657	1.0992425280174696	0.24470959412522858	0.33929241836557544	1.0993472505472761
1	0.0169491525423728	0.325518008785862	0.46392065348634337	1.072875853375437	0.31705582956520584	0.4805868526182413	1.4910413945208731	0.30955179162211705	0.5110047959134185	1.9132569824066623	0.3092187366017336	0.3477217666909309	1.9258328123802255	0.36645223568213214	0.3484241321686725	1.9176624712402621	0.29441244826995394	0.5898018643814997	2.0069172938679944	0.12815392385083313	0.47780143359797445	1.0797792769810954	0.13460592278121744	0.4994488346084249	1.492554593151661	0.1514994844882642	0.5252085293772014	1.9387298133965314	0.1609758602261473	0.35213781656941606	1.922054557486358	0.09959759571603038	0.3994821379314253	1.9393531683524952	0.16457608621168796	0.5533781539441536	1.9908822123265346	0.24224522830056042	0.45592914336757473	0.49556077774306395	0.24545679811125903	0.43969065930438944	0.25950742356585366	0.23183938817425567	0.3600987007863398	0.37295360712114173	0.38775724419002244	0.4468462218798503	0.5746084705676847	0.39036293346353634	0.4011790680648717	0.8001698196951247	0.2721569788200914	0.3387547473467172	1.0046299731779098	0.18808233601390387	0.3344323854321136	1.1042012204447231	0.19235030659326868	0.36263026005861404	1.1262995381587426	0.22415576267747161	0.3450080085035128	1.1027719677435603	0.07761833069777854	0.4515279428863467	0.5610255358394061	0.08116886088680156	0.40432248949769367	0.8002871634808338	0.22355154720427828	0.3035958330620063	0.9703773904085996	0.22259926922996193	0.2954022426937472	1.0786216563734583	0.22415780113511222	0.30268444537487105	1.10008130974026	0.2445113941666091	0.33878650000899185	1.0974844318298236
2	0.0338983050847457	0.3242209259821862	0.45907325698650703	1.0702472737227822	0.31790092835610645	0.483157491993114	1.4921429712482979	0.3098349357093194	0.5116820802346453	1.9153943453247644	0.3081993646382334	0.3454305596576595	1.9225194844526052	0.3679341128242258	0.3439049917953996	1.9126959475243461	0.2942029960788452	0.5919947473862781	2.008285125592856	0.12447457510416034	0.4817438221692107	1.0792107301453977	0.13494589462890744	0.4994574932547654	1.490929603323916	0.15190874758582118	0.5250400268683549	1.937053774691905	0.15820597542004586	0.3467496958114797	1.918522910810033	0.09873891968243527	0.3953896893611416	1.9365233070139785	0.16494761679129802	0.5546825285226231	1.9916950688142063	0.24229554290394156	0.4561322091108502	0.4944425052560338	0.24545031194281525	0.43970982211810394	0.25971943486862886	0.23187794323560662	0.3601337878450932	0.3729515243510943	0.3879389400373727	0.4470706512893162	0.5759710272807925	0.39216639280848886	0.3977248750378126	0.7991646459954145	0.271762829377089	0.34713548097634583	1.007541420329642	0.18866216432541302	0.3333861404405912	1.1023844887715921	0.1921368792338391	0.3629732546613442	1.1238740589732592	0.22311642270715665	0.3443314188240613	1.1039741271527013	0.07759935651672112	0.4516394157870989	0.5610313206227712	0.08020438645485327	0.4042162591912581	0.7997269662154672	0.2218451295830789	0.30780591918776584	0.9728395273482697	0.2211861274425009	0.29107514024550385	1.0772402886873769	0.22336553617760735	0.3022440728387956	1.1004735554301455	0.24387608828467802	0.3383430171691231	1.0957535913375118
3	0.0508474576271186	0.32389847164902485	0.4580623113895279	1.0715784284723808	0.31761132133435227	0.4823159058773194	1.4917430964820533	0.31036734353368634	0.5102301755954423	1.9149270878298303	0.3074355576115624	0.34369317943130284	1.92003423830575	0.3683299154018493	0.342654579648671	1.9112787488692848	0.29365822949792025	0.5909725082811332	2.007682475502401	0.12351155577213711	0.4825169523791367	1.080085004815449	0.13503791680092495	0.49946369585208344	1.49050953858919	0.1521867709987278	0.5249846826308253	1.9359135282441167	0.15742833708364715	0.3451803259436235	1.9174466872446823	0.09849499209497246	0.3942495205999318	1.9357168040238921	0.1647549793191907	0.553717427270755	1.9910356488868477	0.2423055341064224	0.45619707017679695	0.4941596832004686	0.24544866694210968	0.4397228357064647	0.2597708475806518	0.23186889552439358	0.3601508859815429	0.37293611005288213	0.38797726546121153	0.4471506031604584	0.5763223071280704	0.3922112924454243	0.39547243272727883	0.7988575343401216	0.2716859240851081	0.3494205896211921	1.0083674110917487	0.18793421232606503	0.33050695108765626	1.1003661176218733	0.1918829742913098	0.3627498477865151	1.1221575928495944	0.22183857054525274	0.34346192620472676	1.1040947500889318	0.07758222422431994	0.45170091770547155	0.5609927878994716	0.07942584650720695	0.40384018288022505	0.8003318612215228	0.2213883565070132	0.3089796576066894	0.9734829406708753	0.21977941757941874	0.28973155286710656	1.0770315855558734	0.22262857709427544	0.3021340749884799	1.1002996750995648	0.24257019582025022	0.3380904595719465	1.0946958988923163
